<svg width="214" height="159" viewBox="0 0 214 159" fill="none" xmlns="http://www.w3.org/2000/svg">
<mask id="mask0_3_126" style="mask-type:alpha" maskUnits="userSpaceOnUse" x="0" y="0" width="214" height="159">
<rect width="214" height="159" fill="#C4C4C4"/>
</mask>
<g mask="url(#mask0_3_126)">
<path d="M7.12912 7C5.20521 44.5724 36.0394 49.9085 36.0394 49.9085C34.49 8.77009 7.12912 7 7.12912 7Z" fill="#18C139"/>
<path d="M63.0129 54.7019H55.0203C54.1616 54.7242 53.3495 55.0978 52.7736 55.7356C52.1762 56.2968 51.8276 57.0736 51.8052 57.8933V117.727C51.8015 118.579 52.1524 119.394 52.7736 119.976C53.3515 120.602 54.168 120.955 55.0203 120.945H63.0129C63.8575 120.954 64.6658 120.601 65.2338 119.976C65.9016 119.422 66.2817 118.595 66.2668 117.727V57.9191C66.2321 57.0887 65.8587 56.3089 65.2338 55.7614C64.7014 55.0781 63.8786 54.6856 63.0129 54.7019V54.7019Z" fill="#24243B"/>
<path d="M135.992 54.857H129.536C127.122 54.857 125.663 55.3996 125.069 56.6917L106.63 97.2358H106.32L88.7468 56.6917C88.2756 55.5407 87.1353 54.8076 85.8932 54.857H77.1517C76.1499 54.7288 75.1585 55.1603 74.5693 55.9811C74.1033 56.7967 74.1641 57.8111 74.7242 58.5651L103.325 120.815C103.848 121.92 105 122.584 106.217 122.482H107.082C108.24 122.517 109.31 121.863 109.807 120.815L138.394 58.5651C138.954 57.8111 139.015 56.7967 138.549 55.9811C137.951 55.1862 136.982 54.7603 135.992 54.857V54.857Z" fill="#24243B"/>
<path fill-rule="evenodd" clip-rule="evenodd" d="M150.867 63.462C157.013 56.8704 165.656 53.1823 174.664 53.3066C183.623 53.2084 192.207 56.8958 198.306 63.462C204.75 69.8502 208.321 78.586 208.197 87.6618C208.324 96.8142 204.758 105.631 198.306 112.12C192.158 118.702 183.558 122.437 174.554 122.437C165.551 122.437 156.951 118.702 150.803 112.12C144.399 105.605 140.861 96.7995 140.976 87.6618C140.853 78.586 144.423 69.8502 150.867 63.462ZM174.632 108.823C179.931 108.806 184.992 106.617 188.635 102.766V102.817C192.404 98.7115 194.452 93.3134 194.355 87.7393C194.511 82.2281 192.45 76.8847 188.635 72.9067C185.05 69.0084 179.957 66.8509 174.664 66.9892C169.347 66.8779 164.232 69.0285 160.59 72.9067C156.802 76.8783 154.757 82.1996 154.909 87.6876C154.737 93.2944 156.778 98.7434 160.59 102.856C164.258 106.683 169.333 108.84 174.632 108.823Z" fill="#24243B"/>
<path d="M32.9534 54.7019H10.2151C9.38527 54.7366 8.60591 55.1102 8.0588 55.7356C7.4262 56.2882 7.05196 57.0792 7.02583 57.9191V65.9168C7.04808 66.7761 7.42144 67.5887 8.0588 68.1649C8.61971 68.7627 9.39599 69.1116 10.2151 69.134H21.8361V126.759C21.8368 132.118 17.8424 136.636 12.5264 137.289H10.2151C9.36415 137.285 8.55009 137.636 7.96842 138.258C7.33856 138.839 6.9863 139.662 7 140.519V148.517C7.00432 149.347 7.31205 150.146 7.86512 150.765C8.462 151.403 9.30306 151.756 10.1764 151.734H11.2997C24.3763 151.718 35.1898 141.537 36.0007 128.477C36.0957 127.979 36.139 127.472 36.1298 126.965V57.9191C36.1334 57.0676 35.7826 56.253 35.1614 55.671C34.6068 55.0344 33.7971 54.6791 32.9534 54.7019Z" fill="#24243B"/>
</g>
</svg>
